<?xml version="1.0" standalone="no"?>
<!DOCTYPE svg PUBLIC "-//W3C//DTD SVG 20010904//EN"
 "http://www.w3.org/TR/2001/REC-SVG-20010904/DTD/svg10.dtd">
<svg version="1.0" xmlns="http://www.w3.org/2000/svg"
 width="300.000000pt" height="300.000000pt" viewBox="0 0 300.000000 300.000000"
 preserveAspectRatio="xMidYMid meet">
<metadata>
Created by potrace 1.10, written by Peter Selinger 2001-2011
</metadata>
<g transform="translate(0.000000,300.000000) scale(0.100000,-0.100000)"
fill="#000000" stroke="none">
<path d="M1585 2910 c-49 -13 -105 -40 -105 -50 0 -6 7 -7 18 -1 111 56 239
46 302 -25 17 -20 34 -34 36 -31 3 3 -4 15 -15 26 -11 11 -18 26 -16 33 10 26
-161 64 -220 48z"/>
<path d="M1857 2815 c48 -63 63 -79 68 -73 3 3 -20 31 -51 64 -55 59 -55 59
-17 9z"/>
<path d="M1134 2805 c-34 -7 -75 -20 -90 -28 -16 -8 -55 -22 -88 -31 -119 -35
-226 -126 -226 -194 0 -11 -7 -25 -15 -32 -17 -14 -21 -35 -5 -25 21 13 22
-27 1 -49 -26 -27 -27 -48 -3 -45 34 3 42 -1 42 -25 0 -31 -19 -44 -35 -23 -7
9 -16 12 -24 8 -9 -6 -7 -10 8 -14 21 -5 21 -5 -4 -43 -14 -21 -25 -45 -23
-53 1 -9 -4 -33 -11 -54 -14 -43 -6 -131 31 -311 18 -93 22 -101 64 -142 24
-24 50 -44 57 -44 8 0 7 4 -3 10 -8 5 -11 10 -5 10 5 0 -8 17 -28 38 -21 22
-37 43 -36 48 1 5 0 11 -1 14 -1 3 -12 46 -24 95 -17 65 -22 115 -21 183 1 50
0 92 -2 92 -2 0 -8 -10 -13 -22 -9 -21 -9 -20 -7 7 1 18 7 29 15 27 7 -1 12 8
12 21 0 13 9 32 19 41 11 10 17 24 14 32 -3 8 1 20 9 27 16 12 38 68 38 95 0
11 -3 12 -13 4 -7 -6 -19 -7 -26 -3 -10 7 -11 13 -1 30 6 12 13 41 15 64 1 23
5 49 7 57 5 23 49 82 56 75 3 -3 -5 -20 -17 -38 l-22 -32 25 30 c14 17 34 39
43 51 28 33 101 77 114 68 8 -5 10 -3 4 7 -6 11 -5 11 4 3 10 -9 30 -4 84 21
68 30 160 49 230 46 17 -1 26 3 22 9 -8 14 -97 11 -171 -5z"/>
<path d="M1490 2809 c0 -4 24 -12 53 -19 28 -6 71 -16 95 -22 23 -6 45 -8 49
-4 3 3 -1 6 -11 6 -9 0 -30 7 -45 15 -33 17 -141 36 -141 24z"/>
<path d="M1960 2755 c0 -12 39 -47 47 -42 13 8 78 -33 103 -65 11 -15 35 -37
53 -50 27 -19 24 -14 -18 35 -31 36 -72 70 -110 90 -76 40 -75 40 -75 32z"/>
<path d="M2110 2580 c0 -7 -7 -10 -16 -6 -8 3 -12 2 -9 -4 3 -6 17 -10 31 -10
13 0 24 -5 24 -11 0 -5 -5 -7 -12 -3 -7 4 8 -19 33 -52 25 -32 51 -74 57 -93
18 -50 15 -131 -4 -153 -12 -13 -14 -21 -6 -30 7 -9 6 -25 -5 -53 -20 -49 -29
-175 -14 -175 11 0 14 20 16 101 0 20 6 44 14 52 40 49 50 231 15 285 -8 12
-12 28 -8 34 4 7 3 8 -4 4 -12 -7 -68 71 -58 81 9 9 58 -28 63 -48 7 -24 23
-25 23 -1 0 27 -42 62 -76 64 -16 1 -37 8 -46 16 -13 11 -18 12 -18 2z"/>
<path d="M2154 1993 c-4 -10 -9 -61 -11 -113 -3 -109 -6 -130 -17 -148 -7 -11
-4 -11 13 -1 15 10 19 20 14 38 -4 17 -2 22 6 17 8 -5 11 24 11 108 0 64 -2
116 -4 116 -2 0 -7 -8 -12 -17z"/>
<path d="M2034 1985 c22 -60 36 -151 37 -235 1 -101 11 -166 20 -140 5 14 4
68 -2 80 -1 3 -3 43 -4 90 -2 47 -5 94 -9 105 -3 11 -10 37 -15 59 -5 21 -15
44 -22 50 -9 8 -10 6 -5 -9z"/>
<path d="M997 1767 c-9 -6 -21 -24 -26 -39 -10 -26 -9 -27 9 -16 10 7 17 14
15 17 -3 2 2 13 12 23 20 22 13 33 -10 15z"/>
<path d="M1980 1770 c0 -5 7 -10 15 -10 8 0 14 -3 14 -7 -4 -22 3 -32 16 -27
12 5 13 9 4 21 -18 21 -49 36 -49 23z"/>
<path d="M838 1703 c2 -64 2 -67 -13 -48 -16 19 -16 18 -11 -15 3 -19 8 -110
10 -202 4 -144 2 -167 -11 -172 -45 -17 -106 50 -101 111 1 19 -5 40 -15 51
-21 23 -48 174 -40 225 3 20 11 37 18 37 7 0 16 7 19 16 3 8 10 12 16 9 6 -3
7 1 4 10 -6 14 -34 35 -48 35 -22 0 -49 -146 -36 -190 5 -14 16 -58 25 -99 22
-97 68 -196 96 -212 13 -7 38 -12 55 -11 32 1 32 1 43 -62 14 -80 14 -122 -1
-149 -6 -12 -14 -48 -18 -82 -10 -74 -27 -119 -63 -167 -36 -47 -57 -54 -98
-32 -56 28 -90 35 -224 44 -113 7 -141 5 -215 -12 -117 -26 -219 -58 -226 -70
-4 -6 1 -8 12 -5 11 3 51 15 89 26 39 11 86 23 105 25 19 3 51 10 70 16 50 14
71 13 64 -5 -7 -18 7 -20 24 -3 27 27 250 -9 293 -48 14 -12 19 -32 20 -68 0
-28 4 -60 9 -71 7 -14 8 -4 5 32 -3 29 -1 53 4 53 5 0 7 8 4 18 -4 17 14 42
28 39 3 -1 22 13 43 31 20 17 34 32 30 32 -3 0 0 10 9 23 26 40 67 231 67 315
0 43 -3 82 -7 86 -4 3 -8 17 -10 29 -1 12 -8 52 -14 88 -11 63 -10 131 7 321
6 67 0 118 -14 118 -4 0 -6 -30 -4 -67z"/>
<path d="M1040 1750 c-38 -20 -23 -32 25 -19 16 5 38 6 48 3 13 -4 18 -2 15 7
-8 23 -52 28 -88 9z"/>
<path d="M1280 1757 c0 -7 23 -18 51 -24 30 -8 58 -21 66 -33 15 -21 43 -27
43 -10 0 6 -7 13 -15 16 -8 4 -12 10 -9 15 3 5 -9 9 -25 9 -17 0 -31 5 -31 10
0 6 -11 10 -24 10 -14 0 -28 5 -31 10 -9 14 -25 12 -25 -3z"/>
<path d="M2172 1723 c-7 -12 -7 -25 -1 -34 12 -20 11 -151 -2 -207 -6 -26 -22
-57 -35 -69 -27 -25 -32 -48 -9 -39 13 5 14 2 5 -15 -6 -11 -9 -25 -7 -32 2
-7 16 12 31 41 46 90 71 331 38 364 -7 7 -13 4 -20 -9z"/>
<path d="M1115 1683 c-29 -10 -43 -18 -33 -20 9 -3 27 1 40 8 12 7 47 15 78
19 55 7 55 7 10 8 -25 0 -67 -7 -95 -15z"/>
<path d="M1175 1654 c-11 -3 -37 -12 -58 -20 -49 -18 -66 -18 -41 1 18 14 17
14 -8 4 -16 -7 -28 -16 -28 -21 0 -4 -7 -8 -15 -8 -8 0 -15 -5 -15 -11 0 -7
10 -9 27 -4 45 11 48 11 46 -2 -4 -19 10 -16 30 7 22 26 40 25 52 -2 8 -18 18
-23 50 -23 36 0 41 3 50 32 l11 32 34 -20 c19 -11 41 -28 48 -37 10 -14 12
-14 12 0 0 16 -23 39 -55 56 -24 12 -113 22 -140 16z m61 -24 c5 1 10 -2 11
-7 2 -5 -12 -9 -32 -10 -38 -1 -46 10 -18 26 12 6 20 6 24 -1 3 -5 10 -9 15
-8z"/>
<path d="M1733 1640 c-43 -19 -71 -54 -53 -65 10 -6 11 -5 14 15 1 10 36 39
48 40 4 0 8 -10 10 -22 4 -30 62 -48 84 -26 9 8 17 24 19 34 2 10 4 20 4 22 1
1 16 -5 34 -15 33 -18 67 -25 67 -14 0 3 -23 16 -50 29 -59 27 -120 27 -177 2z
m105 -18 c2 -8 -7 -11 -30 -8 -18 3 -36 5 -40 5 -5 1 -8 5 -8 10 0 23 70 16
78 -7z"/>
<path d="M767 1586 c-15 -12 -16 -15 -2 -26 19 -16 35 -2 26 22 -5 14 -9 14
-24 4z"/>
<path d="M2095 1560 c5 -14 11 -52 14 -85 7 -60 7 -60 14 -22 10 45 1 95 -21
116 -13 13 -14 12 -7 -9z"/>
<path d="M1336 1532 c-7 -12 -101 -32 -161 -35 l-50 -2 56 -9 c63 -9 120 3
159 34 14 11 20 20 13 20 -6 0 -14 -4 -17 -8z"/>
<path d="M700 1503 c0 -31 34 -90 43 -76 3 5 -1 22 -9 37 -7 16 -14 34 -14 42
0 7 -4 16 -10 19 -6 4 -10 -6 -10 -22z"/>
<path d="M1767 1498 c25 -9 115 -9 131 1 7 4 -22 8 -68 7 -44 0 -73 -4 -63 -8z"/>
<path d="M2090 1319 c0 -11 -6 -33 -14 -47 -23 -44 -56 -147 -56 -177 0 -19
-4 -26 -13 -22 -11 4 -14 -9 -13 -55 l1 -61 65 -34 c87 -47 317 -184 338 -203
9 -8 37 -28 61 -45 24 -16 45 -34 47 -40 3 -6 -19 -36 -48 -67 -29 -31 -60
-66 -68 -76 -15 -19 -85 -80 -122 -107 -19 -13 -19 -14 1 -54 12 -22 21 -44
21 -50 0 -5 -19 -20 -42 -34 -24 -14 -64 -46 -89 -71 -26 -25 -51 -46 -56 -46
-5 0 -20 -12 -34 -26 -13 -14 -37 -33 -54 -42 -18 -9 -25 -17 -17 -20 7 -2 19
1 27 8 11 9 17 7 27 -9 17 -28 27 -27 25 2 -2 18 18 40 83 96 47 40 100 85
119 101 28 25 33 34 29 62 -3 18 -8 40 -12 48 -5 11 6 26 36 48 24 18 56 50
72 71 16 22 34 37 40 35 11 -4 86 112 86 134 0 14 -57 69 -91 87 -15 8 -29 21
-32 29 -5 12 3 11 36 -5 23 -10 49 -19 57 -19 24 0 80 -57 80 -80 0 -12 -7
-36 -15 -53 -24 -51 -86 -230 -81 -234 2 -3 7 5 11 16 8 25 18 27 35 5 17 -20
70 -42 118 -48 20 -3 45 -7 56 -9 18 -3 45 -41 46 -64 0 -10 46 -63 178 -200
17 -18 32 -40 32 -48 0 -8 7 -15 15 -15 8 0 15 4 15 9 0 11 -73 100 -138 170
-24 25 -52 63 -63 83 -30 58 -86 99 -140 103 -25 1 -63 9 -83 16 -46 16 -45
21 15 175 41 106 43 129 12 141 -10 4 -25 15 -33 24 -8 10 -44 30 -80 44 -76
31 -438 210 -457 226 -7 6 -10 15 -7 20 10 17 54 174 54 197 0 12 11 40 25 61
15 22 23 45 19 54 -9 24 -24 21 -24 -4z"/>
<path d="M1405 1209 c-16 -5 -39 -7 -50 -5 -18 5 -19 4 -3 -8 12 -9 52 -13
125 -12 60 0 95 2 78 3 -16 2 -39 8 -50 13 -35 15 -69 18 -100 9z"/>
<path d="M1616 1197 c-15 -11 -9 -13 45 -14 70 -1 98 7 59 18 -41 12 -85 10
-104 -4z"/>
<path d="M1522 1100 c0 -16 3 -30 8 -30 10 0 18 31 13 48 -8 22 -20 12 -21
-18z"/>
<path d="M1572 1102 c-14 -4 -17 -32 -2 -32 5 0 14 8 19 18 6 9 11 12 11 5 0
-6 13 -11 30 -11 17 1 29 6 27 12 -3 10 -61 16 -85 8z"/>
<path d="M1570 1016 c0 -17 -35 -31 -51 -20 -6 3 -39 6 -72 5 -36 -1 -64 3
-68 10 -5 8 -16 7 -39 -5 -18 -9 -46 -16 -62 -16 -15 0 -28 -5 -28 -11 0 -6
-6 -9 -13 -6 -10 4 -13 -2 -9 -19 5 -28 6 -29 26 -9 23 23 110 36 195 29 85
-7 217 -6 244 2 10 3 24 0 32 -6 15 -13 55 -5 55 11 0 5 -3 9 -7 9 -85 4 -189
13 -193 17 -2 2 2 8 10 13 13 8 12 10 -2 10 -10 0 -18 -6 -18 -14z"/>
<path d="M1797 960 c3 -11 9 -23 14 -26 5 -3 9 -14 9 -24 0 -10 5 -22 10 -25
6 -4 10 7 10 24 0 21 -5 31 -15 31 -8 0 -15 6 -15 14 0 8 -4 17 -9 20 -5 4 -7
-3 -4 -14z"/>
<path d="M1956 882 c-17 -31 -42 -73 -57 -93 -15 -19 -31 -48 -35 -65 -7 -26
-6 -28 9 -15 10 7 17 18 17 23 0 5 12 25 26 44 l27 34 31 -24 c17 -13 63 -36
101 -51 83 -33 85 -35 160 -103 51 -47 55 -54 37 -58 -19 -6 -19 -7 -3 -22 23
-22 82 -54 88 -48 3 2 -14 17 -36 32 -57 37 -38 55 21 20 25 -14 48 -26 53
-26 16 0 -20 32 -57 51 l-38 19 36 51 c20 27 34 52 31 56 -4 3 -21 -18 -38
-46 -18 -28 -36 -51 -40 -51 -15 0 -10 14 26 68 20 28 32 52 28 52 -9 0 -57
-67 -66 -93 -6 -17 -11 -15 -48 15 -83 69 -125 97 -154 104 -16 3 -46 17 -65
30 -19 13 -40 24 -47 24 -18 0 -16 10 8 64 30 69 19 75 -15 8z"/>
<path d="M900 912 c0 -15 37 -52 52 -52 7 0 21 -13 31 -29 19 -33 22 -55 6
-45 -7 4 -9 0 -6 -12 39 -136 49 -165 52 -162 2 2 -2 33 -9 68 -16 77 -10 96
15 49 19 -36 27 -145 9 -134 -12 8 11 -58 43 -121 34 -66 78 -126 163 -226 39
-46 79 -96 89 -113 l17 -30 -21 25 c-156 183 -197 228 -203 224 -4 -3 0 -13
10 -23 9 -10 26 -28 37 -42 11 -13 43 -52 72 -86 28 -34 69 -94 90 -132 30
-57 43 -71 61 -71 13 0 22 5 20 11 -2 6 -7 10 -12 9 -13 -2 -47 53 -41 68 5
14 -14 62 -31 77 -15 13 -113 135 -138 171 -22 31 -29 71 -15 79 20 13 7 25
-32 31 -37 6 -43 11 -65 60 -13 29 -24 63 -24 76 l1 23 21 -25 21 -25 -8 25
c-4 14 -12 30 -17 37 -6 7 -6 19 0 30 5 10 7 24 5 31 -3 6 0 12 7 12 6 0 -3
15 -19 33 -17 17 -31 37 -31 42 0 6 -9 17 -20 25 -11 8 -20 19 -20 25 -1 14
-47 65 -59 65 -6 0 -15 9 -21 20 -11 20 -30 27 -30 12z"/>
<path d="M1421 859 c43 -33 79 -44 91 -28 7 11 11 11 15 2 5 -14 74 -18 72 -5
-3 18 2 26 10 13 7 -10 12 -10 30 5 11 10 21 21 21 24 0 3 -59 6 -131 6 -130
1 -131 1 -108 -17z"/>
<path d="M2151 804 c-13 -37 -7 -60 9 -34 9 14 14 70 7 70 -2 0 -9 -16 -16
-36z"/>
<path d="M952 743 c-1 -42 4 -65 14 -73 8 -7 14 -18 14 -25 0 -17 53 -124 97
-197 19 -32 32 -62 29 -66 -3 -5 2 -9 10 -9 8 0 13 3 12 6 -2 3 -18 34 -36 68
-17 34 -46 97 -63 140 -17 43 -40 86 -50 96 -15 14 -19 26 -14 46 3 15 2 38
-3 51 -7 19 -9 11 -10 -37z"/>
<path d="M1980 745 c0 -3 25 -19 56 -37 52 -29 55 -32 38 -45 -12 -8 -13 -13
-4 -13 7 0 32 -16 56 -35 23 -19 47 -35 53 -35 6 0 11 -4 11 -10 0 -5 7 -10
15 -10 8 0 15 -5 15 -10 0 -6 -7 -13 -15 -16 -8 -4 -15 -11 -15 -17 0 -5 9 -2
20 8 14 13 24 15 31 8 7 -7 2 -15 -15 -26 -13 -9 -27 -26 -31 -37 -4 -12 -11
-17 -18 -13 -7 4 -6 -1 2 -10 12 -16 15 -14 30 15 25 49 45 57 75 29 13 -13
31 -21 38 -19 8 3 0 11 -19 21 -17 9 -38 25 -45 35 -19 26 -125 110 -148 117
-22 7 -27 25 -7 25 7 0 39 -16 71 -35 72 -43 52 -15 -24 34 -30 19 -56 34 -57
33 -2 -1 -28 9 -58 23 -30 13 -55 22 -55 20z"/>
<path d="M1900 700 c0 -5 27 -27 60 -47 58 -37 67 -52 54 -88 -6 -14 -8 -13
-21 5 -8 11 -21 20 -29 20 -8 0 -14 4 -14 10 0 5 -20 19 -45 31 -25 12 -52 31
-60 42 -13 18 -15 19 -15 4 0 -9 5 -17 10 -17 17 0 11 -30 -11 -61 -11 -17
-23 -52 -26 -82 -4 -44 -2 -55 17 -75 29 -31 110 -163 110 -179 0 -7 -10 -13
-22 -13 -26 0 -108 -38 -108 -51 0 -4 -7 -5 -17 -2 -11 4 -14 3 -9 -5 9 -15
-60 -112 -79 -112 -7 0 -15 3 -17 8 -8 20 -110 81 -161 97 -31 10 -62 24 -68
31 -6 8 -22 14 -34 14 -43 0 -55 10 -49 40 7 34 -8 63 -53 103 -19 17 -56 64
-83 106 -47 74 -105 139 -114 130 -10 -9 113 -186 170 -245 50 -52 59 -66 60
-99 l0 -38 140 -57 c145 -58 188 -82 203 -109 9 -14 12 -13 34 7 13 12 42 47
63 77 42 58 91 90 130 82 18 -3 25 2 33 26 8 22 15 28 28 23 10 -3 4 6 -13 21
-17 16 -56 65 -87 110 -65 94 -69 120 -34 187 l23 44 30 -22 c16 -11 31 -24
32 -28 2 -5 9 -8 16 -8 7 0 21 -9 32 -21 18 -20 18 -22 1 -34 -9 -6 -17 -21
-17 -31 0 -11 -6 -28 -13 -39 -15 -21 -28 -65 -21 -65 3 0 10 14 15 30 6 17
17 30 25 30 12 0 19 24 15 56 -1 6 5 17 14 24 12 10 24 4 71 -36 l56 -49 -40
-36 c-44 -39 -72 -89 -47 -85 7 1 25 17 40 36 l27 35 -31 -33 c-27 -28 -45
-26 -23 3 24 32 84 78 90 70 15 -21 84 -67 90 -60 4 3 -1 11 -11 17 -10 5 -46
35 -80 65 -34 31 -74 65 -89 76 -31 23 -32 25 -18 47 8 12 14 10 41 -15 17
-17 29 -23 25 -15 -3 8 -9 23 -12 32 -3 10 -15 20 -25 23 -14 5 -18 12 -14 26
5 14 3 17 -10 13 -9 -4 -23 0 -33 8 -18 15 -90 58 -98 58 -2 0 -4 -4 -4 -10z"/>
<path d="M2361 648 c-28 -37 -37 -58 -28 -58 8 0 69 92 64 96 -2 3 -19 -14
-36 -38z"/>
<path d="M1760 632 c-14 -15 -30 -29 -35 -31 -6 -2 -15 -6 -22 -8 -6 -3 -9
-11 -6 -18 5 -16 12 -12 68 40 18 17 39 29 46 27 10 -2 10 0 -1 7 -21 15 -22
14 -50 -17z"/>
<path d="M1870 578 c0 -34 33 -119 43 -109 7 7 4 26 -8 58 -20 54 -35 76 -35
51z"/>
<path d="M1655 575 c-5 -2 -27 -6 -49 -10 -21 -3 -35 -9 -32 -13 10 -9 78 -3
91 8 7 6 16 6 20 2 5 -4 5 -1 1 6 -7 12 -12 13 -31 7z"/>
<path d="M110 555 c0 -2 21 -16 48 -32 204 -118 369 -328 342 -435 -18 -71
-20 -88 -12 -88 5 0 16 27 25 60 17 60 17 60 -10 127 -49 122 -157 234 -326
338 -58 35 -67 39 -67 30z"/>
<path d="M2164 510 c1 -38 9 -50 20 -31 8 12 -4 71 -14 71 -4 0 -7 -18 -6 -40z"/>
<path d="M940 527 c0 -2 10 -15 21 -28 12 -13 33 -39 47 -57 31 -41 41 -34 14
10 -17 28 -82 87 -82 75z"/>
<path d="M537 476 c13 -27 15 -40 7 -43 -9 -3 -8 -17 2 -51 8 -25 12 -52 10
-59 -3 -7 -1 -23 4 -35 6 -16 9 10 9 85 1 74 -3 107 -10 107 -7 0 -18 8 -26
18 -8 10 -6 1 4 -22z"/>
<path d="M702 438 c10 -71 22 -95 14 -28 -2 25 -5 55 -5 68 -1 12 -5 22 -9 22
-5 0 -5 -28 0 -62z"/>
<path d="M964 422 c20 -23 107 -82 121 -82 4 0 2 7 -5 15 -7 8 -18 15 -25 15
-7 0 -34 17 -61 37 -27 20 -40 27 -30 15z"/>
<path d="M2185 267 c-22 -17 -51 -43 -65 -57 -14 -14 -36 -32 -50 -41 -14 -9
-22 -20 -19 -24 4 -3 36 20 70 53 35 33 80 69 99 81 19 11 28 21 20 21 -8 0
-33 -15 -55 -33z"/>
<path d="M1888 132 c15 -33 29 -55 30 -51 4 11 -36 97 -48 104 -5 3 3 -21 18
-53z"/>
<path d="M1951 155 c12 -22 29 -47 37 -55 22 -23 -12 39 -39 70 -20 24 -20 23
2 -15z"/>
<path d="M1924 136 c21 -38 24 -51 14 -58 -7 -4 -8 -8 -3 -8 6 0 16 4 23 9 10
6 10 10 -3 21 -8 7 -15 18 -15 24 0 6 -10 22 -21 36 -17 20 -15 15 5 -24z"/>
<path d="M1394 61 c5 -13 12 -18 14 -12 2 7 30 11 69 11 49 0 74 -5 99 -21 40
-24 42 -19 12 22 -22 30 -22 30 -114 27 l-91 -3 11 -24z"/>
<path d="M1884 38 c-39 -4 -91 -15 -115 -22 l-44 -14 52 2 c29 0 53 4 53 9 0
4 29 7 64 7 44 0 67 5 76 15 14 17 21 17 -86 3z"/>
</g>
</svg>
